# xmcd
#
# Track frame offsets:
#	150
#	13790
#	26927
#	38762
#	48515
#	62161
#	71154
#	88494
#	102524
#	123762
#	134596
#	146381
#	158491
#	171221
#	180799
#	189474
#	203489
#	215687
#	228006
#	238926
#
# Disc length: 3335 seconds
#
# Revision: 0
# Processed by: cddbd v1.5.2PL0 Copyright (c) Steve Scherf et al.
# Submitted via: EasyCDDAExtractor 10.0.1.1
#
DISCID=1c0d0514
DTITLE=Various Artist - Yesterday once more - Happy together
DYEAR=2008
DGENRE=Country
TTITLE0=The Carpenters - There a kind of hush
TTITLE1=The Turtles - Happy Together
TTITLE2=Herman's Hermits - I'm into something good
TTITLE3=The Chiffons - One fine day
TTITLE4=Petula Clark - I couldn't live without your love
TTITLE5=Wayne Fontana - A groovy kind of love
TTITLE6=KC and The Sunshine Band - Please don't go
TTITLE7=Lobo - Dont' tell me goodnight
TTITLE8=Olivia Newton-John - If not for you
TTITLE9=Frankie Avalon - Hold me, thrill me, kiss me
TTITLE10=Ray Peterson - Corrina,. corrina
TTITLE11=Johnny Tillotson - You can never stop me loving you
TTITLE12=Neil Sedaka - Laughter in the rain
TTITLE13=The Lovin' Spoonful - Do you believe in magic
TTITLE14=Gerry and the Peacemakers - How do you do it
TTITLE15=The New Seekers - Never ending song of love
TTITLE16=The Shirelles - Soldier Boy
TTITLE17=Paul Anka - You are my destiny
TTITLE18=Bobby Vee - A forever kind of love
TTITLE19=Andy Williams - The Hawaiian wedding song
EXTD=
EXTT0=
EXTT1=
EXTT2=
EXTT3=
EXTT4=
EXTT5=
EXTT6=
EXTT7=
EXTT8=
EXTT9=
EXTT10=
EXTT11=
EXTT12=
EXTT13=
EXTT14=
EXTT15=
EXTT16=
EXTT17=
EXTT18=
EXTT19=
PLAYORDER=
